<svg xmlns="http://www.w3.org/2000/svg" viewBox="0 0 64 64">
  <rect width="64" height="64" rx="14" fill="#1D4ED8"/>
  <!-- ghost outline -->
  <line x1="16" y1="10" x2="16" y2="54" stroke="white" stroke-width="1" stroke-linecap="round" opacity="0.18"/>
  <path d="M 16 10 C 16 10 46 10 46 26 C 46 42 16 46 16 46" fill="none" stroke="white" stroke-width="1" stroke-linecap="round" opacity="0.18"/>
  <!-- bold inner P -->
  <line x1="20" y1="13" x2="20" y2="52" stroke="white" stroke-width="7.5" stroke-linecap="round"/>
  <path d="M 20 13 C 20 13 42 13 42 26 C 42 39 20 43 20 43" fill="none" stroke="white" stroke-width="7.5" stroke-linecap="round" stroke-linejoin="round"/>
  <!-- blue highlight top of bowl -->
  <path d="M 30 11 C 42 11 44 19 44 23" fill="none" stroke="#93C5FD" stroke-width="7.5" stroke-linecap="round"/>
  <!-- precision node -->
  <circle cx="44" cy="26" r="3.5" fill="#93C5FD" opacity="0.8"/>
  <!-- EEG mini trail -->
  <line x1="44" y1="26" x2="50" y2="26" stroke="#93C5FD" stroke-width="2" stroke-linecap="round" opacity="0.7"/>
  <path d="M 50 26 L 53 18 L 56 34 L 59 26" fill="none" stroke="#93C5FD" stroke-width="2" stroke-linecap="round" stroke-linejoin="round" opacity="0.7"/>
</svg>
